<mxfile host="Electron" modified="2023-06-27T19:55:02.478Z" agent="Mozilla/5.0 (Macintosh; Intel Mac OS X 10_15_7) AppleWebKit/537.36 (KHTML, like Gecko) draw.io/21.5.1 Chrome/112.0.5615.204 Electron/24.6.0 Safari/537.36" etag="ixpXWjR5UWIb8bbgFH3T" version="21.5.1" type="device">
  <diagram name="Page-1" id="IhkB1rJjvcwHIpBNvjQO">
    <mxGraphModel dx="14730" dy="6155" grid="1" gridSize="10" guides="1" tooltips="1" connect="1" arrows="1" fold="1" page="1" pageScale="1" pageWidth="14000" pageHeight="5000" background="none" math="0" shadow="0">
      <root>
        <mxCell id="0" />
        <mxCell id="1" parent="0" />
        <mxCell id="zu7063ULo1X5sVm2qey1-12" value="" style="endArrow=none;html=1;strokeColor=default;movable=1;resizable=1;rotatable=1;deletable=1;editable=1;locked=0;connectable=1;rounded=0;strokeWidth=3;dashed=1;dashPattern=12 12;" parent="1" edge="1">
          <mxGeometry width="50" height="50" relative="1" as="geometry">
            <mxPoint x="570" y="2250" as="sourcePoint" />
            <mxPoint x="13430" y="2250" as="targetPoint" />
            <Array as="points">
              <mxPoint x="5360" y="2250" />
            </Array>
          </mxGeometry>
        </mxCell>
        <mxCell id="_TUoYvs_di7lexqWb117-2" value="Timeline" style="text;html=1;align=center;verticalAlign=middle;resizable=0;points=[];autosize=1;strokeColor=none;fillColor=none;flipH=0;flipV=0;rotation=270;fontSize=85;fontFamily=Roboto-Bold;fontStyle=1;fontSource=https%3A%2F%2Ffonts.googleapis.com%2Fcss%3Ffamily%3DRoboto-Bold;" vertex="1" parent="1">
          <mxGeometry x="290" y="2425" width="360" height="120" as="geometry" />
        </mxCell>
        <mxCell id="_TUoYvs_di7lexqWb117-4" value="Database" style="text;html=1;align=center;verticalAlign=middle;resizable=0;points=[];autosize=1;strokeColor=none;fillColor=none;flipH=0;flipV=0;rotation=270;fontSize=85;fontFamily=Roboto-Bold;fontStyle=1;fontSource=https%3A%2F%2Ffonts.googleapis.com%2Fcss%3Ffamily%3DRoboto-Bold;" vertex="1" parent="1">
          <mxGeometry x="640" y="3055" width="380" height="120" as="geometry" />
        </mxCell>
        <mxCell id="_TUoYvs_di7lexqWb117-5" value="" style="endArrow=none;html=1;strokeColor=default;movable=1;resizable=1;rotatable=1;deletable=1;editable=1;locked=0;connectable=1;rounded=0;strokeWidth=3;dashed=1;dashPattern=12 12;" edge="1" parent="1">
          <mxGeometry width="50" height="50" relative="1" as="geometry">
            <mxPoint x="570" y="2710" as="sourcePoint" />
            <mxPoint x="13430" y="2710" as="targetPoint" />
            <Array as="points">
              <mxPoint x="5360" y="2710" />
            </Array>
          </mxGeometry>
        </mxCell>
        <mxCell id="_TUoYvs_di7lexqWb117-7" value="" style="endArrow=none;html=1;strokeColor=default;movable=1;resizable=1;rotatable=1;deletable=1;editable=1;locked=0;connectable=1;rounded=0;strokeWidth=3;" edge="1" parent="1">
          <mxGeometry width="50" height="50" relative="1" as="geometry">
            <mxPoint x="1840" y="1826" as="sourcePoint" />
            <mxPoint x="13460" y="1840" as="targetPoint" />
            <Array as="points">
              <mxPoint x="5367" y="1826" />
            </Array>
          </mxGeometry>
        </mxCell>
        <mxCell id="_TUoYvs_di7lexqWb117-8" value="" style="endArrow=none;html=1;strokeColor=default;movable=1;resizable=1;rotatable=1;deletable=1;editable=1;locked=0;connectable=1;rounded=0;strokeWidth=3;" edge="1" parent="1">
          <mxGeometry width="50" height="50" relative="1" as="geometry">
            <mxPoint x="1850" y="1450" as="sourcePoint" />
            <mxPoint x="13450" y="1440" as="targetPoint" />
            <Array as="points">
              <mxPoint x="5307" y="1450" />
            </Array>
          </mxGeometry>
        </mxCell>
        <mxCell id="_TUoYvs_di7lexqWb117-10" value="&lt;font style=&quot;font-size: 75px;&quot;&gt;TradingView&lt;br style=&quot;font-size: 75px;&quot;&gt;&lt;/font&gt;" style="text;html=1;align=center;verticalAlign=middle;resizable=0;points=[];autosize=1;strokeColor=none;fillColor=none;fontFamily=Roboto-Medium;fontSource=https%3A%2F%2Ffonts.googleapis.com%2Fcss%3Ffamily%3DRoboto-Medium;fontSize=75;" vertex="1" parent="1">
          <mxGeometry x="1845" y="1585" width="440" height="100" as="geometry" />
        </mxCell>
        <mxCell id="_TUoYvs_di7lexqWb117-12" value="&lt;font style=&quot;font-size: 75px;&quot;&gt;Server&lt;/font&gt;" style="text;html=1;align=center;verticalAlign=middle;resizable=0;points=[];autosize=1;strokeColor=none;fillColor=none;fontFamily=Roboto-Medium;fontSource=https%3A%2F%2Ffonts.googleapis.com%2Fcss%3Ffamily%3DRoboto-Medium;fontSize=75;" vertex="1" parent="1">
          <mxGeometry x="1845" y="1985" width="240" height="100" as="geometry" />
        </mxCell>
        <mxCell id="_TUoYvs_di7lexqWb117-13" value="Interaction" style="text;html=1;align=center;verticalAlign=middle;resizable=0;points=[];autosize=1;strokeColor=none;fillColor=none;flipH=0;flipV=0;rotation=270;fontSize=85;fontFamily=Roboto-Bold;fontSource=https%3A%2F%2Ffonts.googleapis.com%2Fcss%3Ffamily%3DRoboto-Bold;fontStyle=1" vertex="1" parent="1">
          <mxGeometry x="250" y="1725" width="440" height="120" as="geometry" />
        </mxCell>
      </root>
    </mxGraphModel>
  </diagram>
</mxfile>
